<?xml version="1.0" standalone="no"?>
<!DOCTYPE svg PUBLIC "-//W3C//DTD SVG 20010904//EN"
 "http://www.w3.org/TR/2001/REC-SVG-20010904/DTD/svg10.dtd">
<svg version="1.0" xmlns="http://www.w3.org/2000/svg"
 width="512.000000pt" height="512.000000pt" viewBox="0 0 512.000000 512.000000"
 preserveAspectRatio="xMidYMid meet">

<g transform="translate(0.000000,512.000000) scale(0.100000,-0.100000)"
fill="#b89a78" stroke="none">
<path d="M2540 4903 c-87 -10 -158 -50 -187 -106 -9 -17 -20 -67 -24 -110 -5
-49 -15 -90 -28 -110 -20 -33 -20 -33 -1 -62 11 -17 20 -44 20 -61 0 -49 20
-94 43 -99 12 -3 45 -4 72 -3 l50 3 3 -69 c3 -68 2 -69 -50 -150 -29 -44 -98
-128 -154 -186 -55 -58 -105 -114 -111 -125 -19 -34 28 -114 74 -129 16 -5 18
-21 20 -118 2 -62 8 -138 14 -168 6 -30 12 -131 13 -225 1 -168 1 -171 31
-227 l29 -58 -12 -82 c-29 -189 -34 -270 -29 -443 6 -191 22 -314 62 -460 13
-49 31 -117 40 -150 9 -33 18 -98 20 -145 3 -66 12 -111 44 -203 42 -123 63
-234 105 -552 14 -104 28 -210 32 -233 10 -79 -12 -140 -76 -203 -65 -66 -130
-101 -226 -125 -77 -19 -94 -29 -94 -54 0 -27 24 -31 160 -31 126 1 213 11
261 29 15 6 60 8 101 5 61 -5 77 -3 91 11 33 34 18 113 -48 249 l-38 78 6 112
c3 65 16 158 31 222 52 220 20 473 -77 613 -21 30 -37 69 -41 97 -8 51 -9 37
39 434 19 156 35 309 35 340 0 77 15 123 55 173 20 24 48 68 63 98 24 48 27
66 27 150 0 83 -3 101 -27 145 -14 28 -45 71 -68 98 l-42 47 6 68 c3 37 8 167
12 288 l6 222 41 0 c46 1 83 24 110 69 20 35 39 123 26 123 -5 0 -9 -5 -9 -10
0 -20 -49 -60 -74 -60 -18 0 -27 8 -35 31 -15 45 -14 157 5 274 48 314 58 486
34 563 -36 115 -210 228 -330 215z"/>
</g>
</svg>
