<?xml version="1.0" encoding="UTF-8" standalone="no"?>
<svg xmlns="http://www.w3.org/2000/svg" viewBox="70 50 1400 900" width="1400" height="900" preserveAspectRatio="xMidYMid meet">
<g transform="translate(0.000000,1024.000000) scale(0.100000,-0.100000)" fill="#2c2620" stroke="none">
<path d="M2182 3769 c-67 -34 -96 -79 -100 -159 -7 -112 24 -155 168 -235 47
-26 100 -58 118 -72 115 -86 59 -253 -86 -253 -83 0 -156 57 -181 141 -20 65
-36 43 -39 -53 l-3 -86 53 -19 c38 -13 82 -18 153 -18 88 0 107 3 150 26 67
34 107 91 113 163 9 111 -39 175 -202 266 -121 67 -156 104 -156 165 0 101
114 152 217 97 25 -14 58 -65 68 -104 4 -16 14 -28 21 -28 12 0 14 16 12 82
l-3 82 -50 13 c-81 21 -202 17 -253 -8z"/>
<path d="M3115 3755 c-8 -20 -30 -81 -50 -135 -174 -484 -213 -570 -261 -570
-8 0 -14 -6 -14 -13 0 -10 18 -14 60 -16 67 -2 150 8 150 18 0 3 -15 13 -33
21 -27 13 -32 20 -30 47 2 18 16 65 32 105 l29 73 130 3 129 3 36 -101 c20
-55 34 -107 30 -115 -3 -9 -18 -19 -34 -22 -97 -19 57 -43 175 -27 53 8 58 17
17 34 -33 13 -35 18 -126 260 -185 490 -176 470 -201 470 -18 0 -28 -9 -39
-35z m70 -268 c30 -81 55 -149 55 -152 0 -3 -49 -5 -110 -5 -81 0 -110 3 -110
12 0 17 102 300 106 295 2 -2 29 -69 59 -150z"/>
<path d="M7291 3482 c-149 -402 -153 -410 -191 -423 -16 -6 -30 -17 -30 -25 0
-12 18 -14 100 -12 103 3 125 14 70 35 -39 15 -39 37 1 147 l32 87 131 -3 130
-3 33 -85 c41 -109 42 -128 3 -143 -58 -22 -26 -32 98 -32 94 0 122 3 122 13
0 7 -13 18 -29 23 -34 12 -32 7 -187 414 -58 154 -111 288 -116 298 -5 9 -19
17 -31 17 -20 0 -34 -32 -136 -308z m195 -59 l34 -93 -115 0 c-63 0 -115 2
-115 4 0 4 86 244 102 286 11 28 14 23 94 -197z"/>
<path d="M9840 3648 c-191 -517 -202 -543 -231 -570 -16 -16 -36 -28 -44 -28
-8 0 -15 -4 -15 -10 0 -6 36 -10 89 -10 49 0 96 -3 105 -6 10 -4 16 -1 16 8 0
7 -13 19 -30 25 -38 14 -38 34 -2 143 l29 85 133 0 134 0 32 -90 c41 -113 42
-124 4 -138 -16 -6 -30 -15 -30 -19 0 -9 23 -11 152 -12 104 -1 121 8 65 34
-30 14 -38 32 -159 345 -69 182 -131 342 -137 358 -7 19 -17 27 -34 27 -22 0
-29 -13 -77 -142z m115 -175 l53 -143 -114 0 c-63 0 -114 2 -114 4 0 8 79 233
96 271 11 26 19 35 22 25 3 -8 29 -79 57 -157z"/>
<path d="M11665 3778 c-79 -28 -125 -95 -125 -181 0 -105 41 -154 200 -238
120 -63 150 -97 150 -169 0 -115 -113 -174 -228 -119 -46 23 -75 60 -94 122
-6 20 -17 37 -25 37 -11 0 -13 -19 -11 -92 l3 -93 65 -17 c171 -44 332 2 376
109 18 43 18 147 -1 182 -22 44 -94 101 -193 155 -113 60 -143 90 -149 148 -6
59 21 100 80 123 83 31 171 -15 198 -103 7 -23 18 -42 26 -42 11 0 13 17 11
82 l-3 82 -50 13 c-60 15 -188 16 -230 1z"/>
<path d="M3780 3773 c0 -5 15 -16 33 -24 l32 -14 0 -330 0 -330 -32 -15 c-18
-8 -33 -18 -33 -21 0 -19 344 -16 419 3 60 16 125 79 141 138 24 90 -14 181
-92 219 -25 11 -52 21 -61 21 -26 0 -29 17 -3 24 32 8 83 52 101 87 20 37 19
113 -1 155 -10 21 -35 45 -63 62 -45 27 -49 27 -243 30 -112 2 -198 0 -198 -5z
m351 -56 c44 -29 59 -60 59 -122 0 -98 -53 -145 -165 -145 l-65 0 0 145 0 145
69 0 c54 0 75 -5 102 -23z m15 -333 c114 -54 122 -230 14 -297 -27 -17 -51
-22 -100 -22 -106 0 -100 -11 -100 181 l0 167 76 -6 c42 -4 91 -14 110 -23z"/>
<path d="M4650 3772 c0 -6 13 -15 30 -20 18 -7 32 -20 35 -34 3 -13 4 -162 3
-333 l-3 -309 -30 -16 c-16 -8 -32 -16 -35 -18 -2 -2 2 -7 10 -13 15 -9 227
-5 237 5 3 3 -11 12 -31 20 l-36 15 0 150 0 151 45 0 c52 0 44 9 154 -175 43
-71 89 -138 103 -148 28 -21 103 -33 142 -23 36 9 32 18 -13 37 -29 13 -49 33
-87 93 -27 42 -72 112 -100 156 l-51 78 43 17 c59 22 100 72 114 138 20 88
-10 159 -89 205 -45 27 -50 27 -243 30 -125 2 -198 0 -198 -6z m348 -52 c48
-30 72 -75 72 -140 0 -108 -52 -159 -171 -168 l-69 -5 0 167 0 166 68 0 c49 0
76 -5 100 -20z"/>
<path d="M5576 3773 c-4 -4 8 -14 26 -23 l33 -15 0 -330 0 -330 -32 -15 c-56
-26 -32 -35 95 -35 91 0 122 3 122 13 0 6 -7 12 -15 12 -8 0 -24 9 -35 20 -19
19 -20 33 -20 330 l0 311 25 24 c13 14 29 25 35 25 5 0 10 5 10 10 0 11 -232
14 -244 3z"/>
<path d="M6142 3768 c3 -7 14 -14 26 -16 11 -2 25 -9 31 -16 8 -9 10 -115 9
-337 l-3 -324 -32 -15 c-59 -27 -40 -37 67 -36 103 1 126 12 70 33 -17 6 -34
23 -40 38 -12 30 -14 545 -2 545 4 0 21 -20 37 -44 17 -23 118 -163 225 -309
144 -198 200 -267 215 -267 20 0 20 4 17 325 -1 179 1 340 6 358 5 22 17 36
40 46 18 8 32 18 32 23 0 4 -45 8 -100 8 -106 0 -124 -10 -66 -34 33 -14 34
-15 41 -96 8 -85 4 -420 -5 -420 -3 0 -95 124 -204 275 l-200 275 -84 0 c-62
0 -83 -3 -80 -12z"/>
<path d="M8580 3770 c0 -5 11 -12 25 -16 14 -3 30 -14 35 -24 6 -11 10 -147
10 -329 0 -298 -1 -312 -20 -331 -11 -11 -27 -20 -35 -20 -8 0 -15 -7 -15 -15
0 -12 20 -14 120 -12 83 1 120 6 120 14 0 6 -13 16 -29 21 -27 10 -28 12 -33
99 -3 49 -3 124 0 166 l5 77 178 0 179 0 0 -144 c0 -167 -6 -191 -50 -201 -17
-4 -29 -12 -27 -18 5 -17 247 -17 247 -1 0 7 -11 15 -25 18 -15 4 -30 18 -35
32 -6 14 -10 157 -10 325 l0 300 25 24 c13 14 29 25 35 25 5 0 10 5 10 10 0 6
-47 10 -120 10 -119 0 -149 -9 -96 -30 41 -15 47 -40 44 -177 l-3 -128 -180 0
-180 0 -1 125 c-1 140 4 166 41 180 54 21 24 30 -95 30 -72 0 -120 -4 -120
-10z"/>
<path d="M10540 3770 c0 -6 11 -15 24 -20 14 -5 30 -18 35 -29 14 -26 15 -615
1 -641 -5 -10 -21 -21 -35 -24 -29 -7 -33 -21 -8 -30 22 -9 183 4 183 15 0 4
-14 10 -30 14 -17 4 -35 15 -40 25 -6 12 -9 121 -8 289 l3 269 195 -266 c107
-146 209 -285 225 -308 20 -30 37 -44 53 -44 l22 0 0 346 c0 205 4 353 10 364
5 10 21 21 35 24 56 14 21 26 -75 26 -101 0 -125 -9 -70 -29 18 -6 34 -21 40
-36 12 -30 14 -485 3 -485 -7 0 -179 235 -373 508 l-30 42 -80 0 c-48 0 -80
-4 -80 -10z"/>
<path d="M12290 3770 c0 -5 11 -12 25 -16 14 -3 30 -14 35 -24 6 -11 10 -147
10 -329 0 -298 -1 -312 -20 -331 -11 -11 -27 -20 -35 -20 -18 0 -20 -16 -2
-23 12 -4 508 0 513 5 1 2 5 40 9 86 9 98 -7 111 -42 33 -29 -68 -62 -84 -186
-89 -68 -3 -102 -1 -112 8 -12 10 -15 43 -15 171 l0 159 65 0 c88 0 132 -19
142 -61 5 -18 14 -34 21 -37 9 -3 12 26 12 113 0 86 -3 116 -12 113 -7 -3 -15
-18 -20 -34 -12 -45 -33 -54 -125 -54 l-83 0 0 150 0 150 109 0 c124 0 147
-10 175 -80 25 -62 36 -49 36 40 l0 80 -250 0 c-157 0 -250 -4 -250 -10z"/>
<path d="M13130 3770 c0 -6 11 -15 24 -20 45 -17 47 -32 44 -356 -3 -337 2
-310 -64 -350 -15 -10 1 -13 84 -15 77 -3 102 -1 102 9 0 6 -6 12 -14 12 -8 0
-23 8 -35 18 -21 17 -21 22 -19 294 l3 276 225 -309 c181 -248 229 -309 247
-309 l23 0 0 346 c0 205 4 353 10 364 5 10 21 21 35 24 56 14 21 26 -75 26
-55 0 -100 -4 -100 -8 0 -5 15 -15 32 -23 19 -8 35 -24 39 -39 10 -35 11 -480
2 -480 -5 0 -26 26 -49 58 -23 31 -112 155 -198 275 l-158 217 -79 0 c-47 0
-79 -4 -79 -10z"/>
<path d="M6119 2243 c-12 -27 -29 -70 -39 -98 -10 -27 -37 -95 -59 -150 -22
-55 -41 -104 -41 -108 0 -5 12 -7 26 -5 22 2 30 12 47 56 l20 52 92 0 92 0 19
-52 c16 -46 23 -53 48 -56 35 -4 38 -17 -44 188 -34 85 -67 170 -73 188 -8 26
-16 32 -39 32 -25 0 -32 -7 -49 -47z m84 -115 l35 -88 -73 0 -73 0 36 90 c19
49 36 89 38 87 1 -1 18 -41 37 -89z"/>
<path d="M6590 2265 c0 -24 2 -25 65 -25 l65 0 0 -180 0 -180 25 0 25 0 0 180
0 180 28 0 c63 0 102 12 102 31 0 18 -10 19 -155 19 l-155 0 0 -25z"/>
<path d="M7220 2085 l0 -205 135 0 135 0 0 25 0 25 -110 0 -111 0 3 68 3 67
93 3 c84 2 92 4 92 22 0 19 -7 20 -95 20 l-96 0 3 68 c2 53 6 66 18 64 8 -2
54 -1 103 3 76 6 87 9 87 26 0 18 -9 19 -130 19 l-130 0 0 -205z"/>
<path d="M7820 2085 l0 -205 125 0 125 0 0 25 0 25 -100 0 -100 0 0 180 0 180
-25 0 -25 0 0 -205z"/>
<path d="M8380 2085 l0 -205 25 0 25 0 0 205 0 205 -25 0 -25 0 0 -205z"/>
<path d="M8772 2088 l3 -203 133 -3 132 -3 0 26 0 25 -105 0 -105 0 0 70 0 70
90 0 c83 0 90 1 90 20 0 19 -7 20 -90 20 l-90 0 0 65 0 65 43 2 c23 1 68 0
100 -1 55 -3 57 -2 57 23 l0 26 -130 0 -130 0 2 -202z"/>
<path d="M9360 2084 l0 -205 28 3 c27 3 27 4 30 81 l3 77 48 0 49 0 44 -77
c36 -64 48 -79 71 -81 15 -2 27 0 27 3 0 4 -20 43 -45 86 l-44 80 25 11 c50
23 70 108 39 167 -23 45 -69 61 -179 61 l-96 0 0 -206z m218 133 c29 -26 29
-73 0 -104 -18 -20 -31 -23 -90 -23 l-68 0 0 79 0 79 68 -5 c49 -4 73 -11 90
-26z"/>
</g>
<g transform="translate(0.000000,1024.000000) scale(0.100000,-0.100000)" fill="#b08a4f" stroke="none">
<path d="M9540 9194 c-285 -54 -572 -320 -857 -794 -327 -545 -742 -1459
-1039 -2293 l-39 -108 -165 -108 c-237 -156 -557 -347 -812 -485 l-87 -47 -5
33 c-7 46 -53 347 -67 442 l-12 79 44 36 c201 164 303 307 315 443 11 125 -61
198 -196 198 -168 0 -317 -146 -376 -370 -17 -65 -23 -211 -14 -319 l4 -55
-109 -83 c-545 -414 -1090 -614 -1680 -615 -392 -1 -730 76 -1237 281 -106 43
-278 113 -382 155 -228 93 -422 159 -536 183 -129 27 -367 25 -480 -5 -140
-37 -263 -103 -346 -186 -74 -74 -114 -137 -114 -181 0 -20 5 -25 24 -25 18 0
32 13 56 50 116 181 408 298 685 275 223 -18 414 -76 798 -242 380 -163 629
-255 838 -308 578 -147 1158 -103 1708 129 182 77 459 240 685 404 54 40 100
71 102 69 6 -6 52 -331 59 -418 l7 -86 -109 -58 c-229 -122 -431 -274 -543
-408 -165 -197 -209 -437 -105 -573 14 -18 51 -45 82 -61 53 -25 68 -28 158
-27 86 1 111 5 183 32 193 72 356 228 447 426 41 89 91 244 105 327 6 35 14
135 17 221 l6 157 141 77 c191 104 607 355 786 474 30 20 61 40 68 44 8 5 6
-10 -7 -46 -253 -688 -361 -1004 -361 -1053 0 -71 92 -127 164 -99 9 4 81 101
159 218 464 687 839 1092 1048 1131 81 15 78 -49 -14 -265 -84 -200 -124 -327
-138 -442 -33 -267 87 -451 371 -573 353 -151 802 -161 1267 -29 384 109 760
277 1443 644 681 366 1071 524 1455 590 478 82 859 -19 977 -258 28 -56 33
-77 33 -137 -1 -93 -26 -165 -81 -226 -48 -55 -51 -61 -29 -79 51 -43 151 97
176 247 23 139 -16 249 -125 359 -158 159 -427 230 -768 205 -325 -24 -638
-111 -1033 -286 -177 -78 -305 -143 -758 -382 -880 -465 -1279 -620 -1727
-673 -248 -29 -556 11 -726 95 -94 46 -153 100 -194 177 -28 53 -34 76 -38
143 -5 107 12 175 103 404 97 246 118 323 113 416 -3 58 -9 80 -31 114 -49 75
-130 97 -238 65 -244 -72 -493 -300 -869 -794 -174 -229 -177 -232 -146 -150
167 449 239 640 313 826 l88 221 165 143 c238 205 453 406 625 581 651 664
1047 1309 1106 1799 26 216 -20 355 -137 409 -45 22 -144 34 -194 25z m189
-112 c40 -30 60 -64 72 -122 22 -115 -14 -325 -87 -512 -201 -510 -642 -1108
-1212 -1644 -185 -175 -462 -417 -469 -411 -6 7 142 383 234 597 304 705 584
1259 806 1599 230 351 438 533 587 516 25 -3 56 -13 69 -23z m-3005 -2608 c65
-65 -1 -215 -168 -379 l-91 -90 -3 69 c-4 92 12 162 59 255 64 129 155 194
203 145z m-418 -1406 c-9 -110 -50 -293 -90 -399 -125 -335 -370 -535 -546
-446 -85 42 -112 121 -86 247 36 170 168 335 396 492 77 54 308 188 324 188 5
0 6 -36 2 -82z"/>
<path d="M6640 1420 c0 -20 7 -20 1190 -20 1183 0 1190 0 1190 20 0 20 -7 20
-1190 20 -1183 0 -1190 0 -1190 -20z"/>
</g>
</svg>