<?xml version="1.0" encoding="UTF-8" standalone="no"?>
<svg xmlns="http://www.w3.org/2000/svg" viewBox="90 51 1356 606" width="1356" height="606" preserveAspectRatio="xMidYMid meet">
<g transform="translate(0.000000,1024.000000) scale(0.100000,-0.100000)" fill="#b08a4f" stroke="none">
<path d="M9540 9194 c-285 -54 -572 -320 -857 -794 -327 -545 -742 -1459
-1039 -2293 l-39 -108 -165 -108 c-237 -156 -557 -347 -812 -485 l-87 -47 -5
33 c-7 46 -53 347 -67 442 l-12 79 44 36 c201 164 303 307 315 443 11 125 -61
198 -196 198 -168 0 -317 -146 -376 -370 -17 -65 -23 -211 -14 -319 l4 -55
-109 -83 c-545 -414 -1090 -614 -1680 -615 -392 -1 -730 76 -1237 281 -106 43
-278 113 -382 155 -228 93 -422 159 -536 183 -129 27 -367 25 -480 -5 -140
-37 -263 -103 -346 -186 -74 -74 -114 -137 -114 -181 0 -20 5 -25 24 -25 18 0
32 13 56 50 116 181 408 298 685 275 223 -18 414 -76 798 -242 380 -163 629
-255 838 -308 578 -147 1158 -103 1708 129 182 77 459 240 685 404 54 40 100
71 102 69 6 -6 52 -331 59 -418 l7 -86 -109 -58 c-229 -122 -431 -274 -543
-408 -165 -197 -209 -437 -105 -573 14 -18 51 -45 82 -61 53 -25 68 -28 158
-27 86 1 111 5 183 32 193 72 356 228 447 426 41 89 91 244 105 327 6 35 14
135 17 221 l6 157 141 77 c191 104 607 355 786 474 30 20 61 40 68 44 8 5 6
-10 -7 -46 -253 -688 -361 -1004 -361 -1053 0 -71 92 -127 164 -99 9 4 81 101
159 218 464 687 839 1092 1048 1131 81 15 78 -49 -14 -265 -84 -200 -124 -327
-138 -442 -33 -267 87 -451 371 -573 353 -151 802 -161 1267 -29 384 109 760
277 1443 644 681 366 1071 524 1455 590 478 82 859 -19 977 -258 28 -56 33
-77 33 -137 -1 -93 -26 -165 -81 -226 -48 -55 -51 -61 -29 -79 51 -43 151 97
176 247 23 139 -16 249 -125 359 -158 159 -427 230 -768 205 -325 -24 -638
-111 -1033 -286 -177 -78 -305 -143 -758 -382 -880 -465 -1279 -620 -1727
-673 -248 -29 -556 11 -726 95 -94 46 -153 100 -194 177 -28 53 -34 76 -38
143 -5 107 12 175 103 404 97 246 118 323 113 416 -3 58 -9 80 -31 114 -49 75
-130 97 -238 65 -244 -72 -493 -300 -869 -794 -174 -229 -177 -232 -146 -150
167 449 239 640 313 826 l88 221 165 143 c238 205 453 406 625 581 651 664
1047 1309 1106 1799 26 216 -20 355 -137 409 -45 22 -144 34 -194 25z m189
-112 c40 -30 60 -64 72 -122 22 -115 -14 -325 -87 -512 -201 -510 -642 -1108
-1212 -1644 -185 -175 -462 -417 -469 -411 -6 7 142 383 234 597 304 705 584
1259 806 1599 230 351 438 533 587 516 25 -3 56 -13 69 -23z m-3005 -2608 c65
-65 -1 -215 -168 -379 l-91 -90 -3 69 c-4 92 12 162 59 255 64 129 155 194
203 145z m-418 -1406 c-9 -110 -50 -293 -90 -399 -125 -335 -370 -535 -546
-446 -85 42 -112 121 -86 247 36 170 168 335 396 492 77 54 308 188 324 188 5
0 6 -36 2 -82z"/>
</g>
</svg>